PathFileType	4	(X/Y/Z)	C:/Users/beibeiliu/ov580/test_trc/capture2\sequence.4_training_dense_left.trc
DataRate	CameraRate	NumFrames	NumMarkers	Units	OrigDataRate	OrigDataStartFrame	OrigNumFrames
120	120	23	19	mm	120	311	355
Frame#	Time	ThumbCMC			ThumbMCP			ThumbIP			ThumbTip			IndexMCP			IndexPIP			IndexTip			MiddleMCP			MiddlePIP			MiddleTip			RingMCP			RingPIP			RingTip			PinkyMCP			PinkyPIP			PinkyTip			BackHand1			BackHand2			BackHand3	
		X0	Y0	Z0	X1	Y1	Z1	X2	Y2	Z2	X3	Y3	Z3	X4	Y4	Z4	X5	Y5	Z5	X6	Y6	Z6	X7	Y7	Z7	X8	Y8	Z8	X9	Y9	Z9	X10	Y10	Z10	X11	Y11	Z11	X12	Y12	Z12	X13	Y13	Z13	X14	Y14	Z14	X15	Y15	Z15	X16	Y16	Z16	X17	Y17	Z17	X18	Y18	Z18	
310	2.58333	-81.8379	71.0914	-23.3724	-59.3571	52.9723	-43.1779	-50.8292	46.3661	-65.7733	-53.6875	38.7669	-92.2589	-72.8186	98.0541	-88.2943	-63.3359	94.5805	-112.623	-55.1858	91.5316	-135.935	-78.6811	68.3291	-97.7208	-63.8967	41.7035	-90.5211	-77.2604	46.718	-55.0225	-92.5592	49.4441	-95.5986	-76.0123	30.9832	-76.0889	-93.7225	43.7705	-47.4099	-104.495	38.8839	-92.1517	-91.3361	27.759	-67.9363	-102.425	48.3935	-49.583	-133.775	73.5252	-63.8182	-140.055	73.4775	-33.7035	-113.231	90.1355	-34.0172	
311	2.59167	-81.7133	66.457	-20.2712	-61.1625	48.5797	-44.185	-44.774	41.1408	-65.428	-55.6777	36.5536	-91.7523	-72.2905	93.159	-90.4447	-59.6081	92.0242	-111.222	-48.8774	91.7303	-133.083	-76.1847	67.9376	-96.4074	-64.8859	37.7635	-90.4507	-76.8684	44.859	-54.5027	-90.3339	49.251	-94.9517	-78.6255	26.606	-75.7929	-91.7929	40.837	-47.8585	-102.342	39.8029	-91.3168	-90.243	27.4948	-68.9862	-105.929	46.7739	-48.3156	-129.958	73.8701	-63.293	-138.304	72.8035	-30.2303	-107.086	92.2433	-37.2727	
312	2.6	-75.1822	65.1172	-21.4926	-60.1498	46.1501	-43.764	-48.4576	38.5282	-66.093	-56.0394	33.6085	-94.1084	-66.7787	92.0514	-88.7461	-54.3783	88.7394	-112.367	-47.9588	86.9254	-136.615	-78.7491	63.8195	-97.6414	-61.0756	36.9802	-87.7535	-76.1213	43.3993	-54.5143	-89.7389	46.3126	-95.6206	-77.4757	27.0397	-76.712	-89.3386	43.154	-48.8354	-102.822	37.7513	-91.6169	-92.6713	26.5275	-67.7212	-105.958	44.9032	-46.1177	-126.208	75.9016	-63.4469	-138.381	72.2488	-31.5158	-106.166	87.8017	-33.3391	
313	2.60833	-75.1316	61.0422	-17.9501	-60.6006	42.7069	-40.6327	-48.3406	35.5238	-71.403	-53.657	31.2623	-95.476	-65.0316	89.5535	-85.6006	-55.9031	86.4117	-109.893	-45.8169	85.9415	-134.362	-73.7491	64.7708	-96.9548	-66.9532	32.9018	-92.0518	-76.317	39.4362	-55.7846	-89.0125	45.708	-95.8985	-83.8882	23.1746	-76.2458	-92.118	41.8539	-48.4874	-107.265	41.1998	-90.4833	-94.2769	24.1796	-68.8116	-105.815	45.8039	-47.5777	-122.212	80.0546	-62.4607	-137.437	76.079	-30.6271	-102.451	88.7224	-33.6047	
314	2.61667	-76.1939	59.0591	-18.8146	-60.4858	39.3698	-44.3185	-48.3866	31.3269	-67.4945	-56.9924	28.2881	-93.1123	-64.2533	86.92	-85.5837	-53.2599	84.0335	-110.336	-42.3714	84.2201	-134.451	-77.3811	62.3979	-96.9851	-66.5825	32.4912	-93.5866	-76.5967	36.0623	-58.2777	-94.4793	46.0992	-96.388	-81.7738	24.7555	-79.223	-91.5765	38.3244	-49.721	-105.169	40.7662	-91.4719	-98.5764	21.8147	-71.834	-107.622	42.7562	-45.3541	-122.82	78.0565	-63.5696	-136.396	75.2001	-30.3781	-102.824	86.5398	-35.9014	
315	2.625	-74.8319	56.4414	-19.5143	-61.2466	35.87	-43.9999	-51.9546	28.2692	-67.9679	-57.2333	26.355	-98.6316	-59.3631	84.7213	-90.6852	-47.7886	83.369	-111.273	-39.3122	82.0751	-133.783	-72.8613	58.217	-99.5717	-66.1212	28.4814	-91.8232	-80.1624	33.4388	-58.7718	-91.6667	45.334	-95.7426	-85.4794	22.0464	-76.1242	-96.1535	37.5343	-49.5661	-106.582	40.1008	-91.314	-98.6743	22.9303	-68.656	-108.655	46.2424	-46.8311	-119.03	79.8121	-59.7192	-134.596	76.6747	-32.1002	-101.142	86.664	-34.3364	
316	2.63333	-76.5956	54.0342	-22.0855	-63.3406	35.0924	-46.9756	-49.7407	25.6342	-72.5881	-60.653	23.3392	-93.6353	-61.3164	81.8079	-85.7957	-51.877	78.727	-110.163	-37.0862	78.0799	-135.208	-74.2534	57.5989	-98.2954	-71.7045	26.5155	-94.0276	-82.343	32.7668	-57.6858	-93.7538	40.2715	-96.7308	-88.739	18.6332	-77.1201	-99.3447	35.3582	-49.6022	-109.299	34.6423	-93.2234	-103.876	20.1455	-68.4588	-108.1	42.2789	-47.4446	-120.493	78.9886	-59.1674	-132.474	78.2907	-29.7495	-97.0419	86.9603	-34.135	
317	2.64167	-73.7943	51.9554	-21.4394	-63.6174	30.3767	-43.8713	-52.5458	21.54	-71.0438	-60.8848	19.4373	-97.8754	-62.3212	77.7946	-91.5266	-51.847	74.0867	-110.944	-41.8354	71.4176	-138.235	-80.5282	54.6679	-99.2592	-69.4263	23.5244	-91.553	-84.8248	26.9146	-60.2133	-96.5225	37.6833	-96.1289	-89.0036	17.2745	-77.6452	-99.2594	35.293	-49.0666	-112.805	35.8776	-92.1166	-105.191	18.2971	-67.5793	-110.701	43.2078	-44.7794	-123.554	78.3937	-60.0863	-132.414	75.489	-30.2591	-97.8978	82.5252	-35.2899	
318	2.65	-75.0016	49.9636	-21.7464	-64.8709	28.0131	-43.5065	-55.6678	18.7198	-72.1461	-64.9259	16.9603	-94.6983	-60.8145	73.9717	-92.3236	-47.3217	70.1243	-109.779	-42.0382	67.8805	-134.333	-75.8358	47.9777	-100.222	-76.7923	18.7481	-94.0254	-85.3555	25.3043	-58.4329	-96.6804	39.8067	-94.5058	-92.4586	13.716	-75.7341	-101.212	35.7292	-47.8674	-116.305	33.5172	-91.5661	-106.694	17.0054	-68.6437	-113.72	36.7279	-46.8267	-123.611	75.7157	-59.5482	-133.008	74.1684	-29.792	-99.056	82.7347	-33.8377	
319	2.65833	-75.3633	46.3149	-24.129	-65.3962	23.0658	-43.4852	-57.2251	13.2967	-72.2637	-68.0289	12.9641	-94.297	-57.8891	70.285	-90.8659	-51.0773	64.879	-110.142	-43.32	61.1705	-136.736	-81.3215	44.0554	-102.483	-77.0984	14.0689	-91.1652	-87.7126	20.5977	-58.6118	-97.9325	34.6116	-95.1474	-96.6105	12.1989	-77.362	-104.251	30.9003	-48.2068	-115.225	34.1209	-90.207	-114.449	13.1201	-68.9598	-116.514	37.0698	-44.3874	-120.698	73.8327	-64.289	-130.977	74.9555	-30.2555	-99.5353	80.4144	-35.9682	
320	2.66667	-81.4584	44.7649	-21.7871	-68.6621	21.4815	-47.487	-62.3835	11.4578	-72.835	-70.1337	10.1371	-98.5658	-64.7038	65.7852	-89.6593	-49.9903	60.486	-110.481	-39.2471	55.2813	-136.424	-85.0625	43.807	-99.5307	-80.0895	11.2551	-92.1599	-94.1262	18.7499	-59.1676	-101.11	30.0936	-95.9171	-101.618	7.99598	-74.3949	-107.266	31.9545	-47.04	-120.614	31.2452	-91.4378	-112.71	12.2208	-68.8394	-117.836	37.0183	-43.6484	-124.922	74.0508	-64.4816	-133.228	75.4199	-31.5494	-99.846	76.7213	-33.6599	
321	2.675	-81.9185	43.6613	-25.8241	-69.2463	16.5282	-43.547	-63.8388	7.62433	-69.1359	-70.6904	4.53864	-96.7461	-64.487	61.6085	-94.1776	-51.3958	55.8267	-109.762	-42.8329	49.9054	-138.253	-82.4255	39.8828	-100.775	-83.8464	11.4871	-95.5859	-93.6623	16.5385	-58.6507	-102.466	32.5378	-95.315	-100.826	7.69028	-74.8829	-106.653	27.8331	-48.2362	-121.091	32.9064	-89.7802	-117.367	10.7713	-67.3666	-117.561	35.2967	-44.0712	-124.721	72.1751	-61.8996	-132.526	75.6615	-29.7335	-100.687	77.1374	-35.5086	
322	2.68333	-84.7081	40.6439	-20.8324	-73.2407	16.3243	-46.622	-65.5951	4.59277	-69.6646	-76.1557	4.25361	-97.3227	-66.594	58.315	-96.0315	-57.5221	52.0287	-112.973	-50.1534	44.6853	-136.711	-83.9488	38.2826	-99.9457	-88.3742	8.3325	-95.5191	-93.6575	15.7237	-56.32	-108.462	28.5009	-95.7648	-105.53	5.34856	-76.3307	-108.358	23.9986	-50.0938	-122.256	27.4554	-90.1312	-121.726	9.18361	-66.313	-118.857	30.8951	-47.0752	-123.97	69.8987	-60.1716	-134.692	71.9569	-31.6584	-101.647	73.4851	-40.334	
323	2.69167	-83.2601	38.5582	-24.4616	-76.7612	14.4866	-44.6226	-72.4423	4.42225	-68.5903	-78.4687	0.923396	-94.8168	-68.948	55.7987	-95.1048	-56.0709	48.6766	-111.603	-49.6124	40.5749	-140.014	-88.6457	35.1966	-100.349	-88.3912	4.544	-92.9169	-96.992	14.9351	-56.0656	-107.326	23.9189	-96.4119	-110.942	2.35229	-75.8135	-114.188	24.9528	-48.5414	-126.32	26.2116	-90.1712	-123.009	6.77538	-67.438	-123.349	32.3378	-45.1245	-131.201	70.4279	-61.6551	-135.794	70.8151	-34.426	-98.9797	72.1966	-38.6125	
324	2.7	-86.7112	36.1291	-25.2144	-81.8146	13.2833	-46.087	-73.632	1.61396	-72.5279	-80.6255	-1.86636	-94.8091	-73.2696	52.9977	-94.5372	-62.4249	44.5975	-116.233	-53.6191	37.7665	-139.085	-94.0375	34.3293	-100.629	-96.0995	2.09518	-96.1152	-103.979	9.41528	-60.311	-110.446	22.3033	-95.5407	-111.847	0.513219	-76.8258	-116.922	23.5804	-48.6369	-130.185	26.5437	-90.6016	-128.739	5.01249	-66.4695	-123.848	29.7136	-46.7668	-132.553	68.8528	-64.2706	-139.78	70.341	-33.2829	-105.433	71.3706	-38.4567	
325	2.70833	-87.4877	36.5196	-26.269	-79.4204	10.9599	-47.7727	-75.9817	1.90129	-75.8983	-84.5217	-1.84133	-97.4118	-76.4475	50.8819	-95.6297	-64.1632	41.6118	-117.381	-58.0683	35.7387	-140.029	-96.7422	30.2568	-103.247	-99.797	1.06632	-95.829	-103.957	9.32185	-59.8637	-117.983	23.2119	-97.2146	-118.097	-1.11389	-73.4274	-118.357	20.8276	-49.1128	-133.481	24.1099	-91.5369	-129.221	4.58428	-66.0328	-128.053	29.5498	-46.5003	-132.202	67.5541	-65.7735	-140.752	69.3489	-36.8864	-104.367	68.933	-40.1407	
326	2.71667	-94.0241	36.055	-28.0156	-83.1718	10.4321	-49.512	-80.8771	0.501104	-71.3617	-88.2767	-3.10306	-98.9567	-78.6751	49.9457	-97.8257	-66.3312	39.9953	-122.083	-59.1239	32.4108	-142.869	-100.096	30.4145	-103.2	-104.358	-1.53624	-93.7574	-106.501	6.13073	-60.7076	-118.661	21.6933	-97.8379	-120.281	-1.23667	-76.9534	-119.178	19.5077	-50.4209	-135.537	19.3115	-91.0665	-133.929	3.68625	-65.9869	-130.188	25.6332	-44.9395	-137.212	66.8703	-68.3034	-142.428	71.4852	-37.4362	-109.379	69.4461	-42.406	
327	2.725	-96.0582	34.354	-29.4373	-86.3914	7.70335	-48.0492	-85.1507	-1.88134	-76.4176	-91.587	-5.78982	-98.5878	-82.3849	48.7997	-97.7252	-73.8883	37.8122	-122.11	-66.8408	31.1583	-142.739	-102.595	26.8425	-105.18	-107.967	-2.44725	-94.9162	-112.576	6.66012	-61.0784	-124.55	17.8926	-98.4567	-124.362	-3.429	-77.8288	-123.871	19.7769	-49.5815	-139.175	20.0458	-91.7862	-139.626	1.50101	-69.6259	-135.207	27.2512	-46.8934	-140.327	65.234	-66.0089	-145.726	68.9081	-34.2283	-111.891	67.9012	-43.5397	
328	2.73333	-95.5322	32.5221	-30.2998	-92.6432	7.8667	-50.6279	-89.763	-1.91544	-78.2266	-98.5346	-6.32585	-98.6419	-83.3916	47.1026	-98.0009	-75.7582	36.0276	-125.497	-72.2045	29.0833	-144.979	-107.989	27.6275	-105.214	-113.007	-2.6071	-98.8758	-113.618	6.33406	-61.5526	-129.128	20.3009	-98.3155	-129.344	-3.74898	-80.3956	-126.928	16.3669	-52.317	-149.198	20.1647	-93.4867	-142.408	1.68683	-69.2426	-137.839	27.0759	-47.4626	-142.718	64.7998	-70.1339	-148.991	69.6479	-38.7871	-111.121	68.6328	-44.4875	
329	2.74167	-103.678	32.1135	-30.4413	-95.7329	5.81016	-53.7	-92.408	-6.09994	-79.3058	-104.173	-9.33596	-102.439	-88.3452	44.4058	-103.974	-79.2092	33.8143	-124.232	-78.819	26.0142	-149.123	-112.177	26.4839	-105.759	-118.057	-5.4014	-97.7621	-121.509	6.89862	-60.6979	-136.69	18.554	-100.557	-133.734	-5.20443	-76.8671	-134.184	14.9021	-51.4819	-150.338	16.6176	-92.7736	-144.624	0.54256	-70.9467	-144.519	22.3695	-47.4132	-147.335	64.5146	-69.9567	-152.306	67.065	-39.8492	-118.404	65.7434	-45.3995	
330	2.75	-103.363	29.3906	-34.3982	-101.33	4.83451	-54.8106	-101.223	-5.22982	-82.0443	-107.816	-12.7666	-102.741	-94.847	43.8377	-102.767	-89.1243	34.1518	-128.165	-82.1037	26.1682	-148.533	-118.712	22.6264	-109.229	-122.47	-7.38115	-98.8915	-128.9	4.1045	-63.694	-138.544	19.1709	-100.481	-135.934	-5.35679	-78.3177	-133.992	14.2629	-53.132	-157.493	15.271	-95.0669	-151.266	0.18505	-68.9337	-146.046	21.4364	-48.6215	-147.267	64.3119	-67.3792	-153.868	68.7291	-38.9982	-121.101	64.4333	-46.5646	
331	2.75833	-111.034	29.7463	-33.0875	-103.544	1.72457	-58.8907	-103.502	-10.1189	-80.4748	-117.316	-12.6607	-107.868	-99.197	41.6216	-108.943	-96.7421	32.4615	-128.944	-92.342	23.0416	-155.652	-122.862	24.7839	-109.114	-128.363	-7.93502	-102.427	-129.967	3.76402	-63.4528	-143.504	15.4015	-101.625	-142.244	-7.67235	-82.9397	-142.28	11.935	-55.0721	-161.516	18.4703	-94.7886	-157.829	-1.82736	-69.5848	-152.304	22.9837	-47.771	-151.728	61.6244	-66.8209	-157.646	66.6873	-35.2594	-125.208	64.5029	-46.6583	
332	2.76667	-113.776	27.4397	-39.1617	-112.088	1.20664	-57.5882	-111.842	-11.2689	-82.6198	-122.221	-15.3693	-104.565	-105.455	39.8707	-107.318	-100.747	29.6287	-134.136	-100.688	21.3877	-157.527	-130.72	19.3424	-112.307	-131.243	-9.21799	-103.822	-138.779	1.06841	-67.3318	-154.143	14.125	-103.271	-151.824	-9.05577	-81.4974	-145.405	11.1522	-55.897	-166.377	18.7386	-94.8333	-161.512	-2.55015	-69.608	-159.638	19.2991	-49.6664	-158.67	60.2714	-69.415	-164.776	67.2637	-40.2282	-131.288	63.3724	-48.8037	
